<svg width="24" height="24" viewBox="0 0 24 24" fill="none" xmlns="http://www.w3.org/2000/svg">
<path d="M20.1 6.6L19.8 6.7L18.2 6.8L17.7 7.5L17.4 7.4L16.2 6.4L16 5.7L15.7 5L15 4.4L14 4.2V4.6L15 5.5L15.5 6.1L14.9 6.4L14.5 6.3L14 5.9V5.4L13.2 5.1L12.8 6.2L12 6.5L12.1 7.1L13.1 7.2L13.3 6.2L14.2 6.3L14.6 6.5H15.3L15.8 7.4L16.9 8.6V9.1L15.9 9L14.3 9.9L13.2 11.3L13 12H12.6L11.8 11.6L11 12L11.2 12.9L11.6 12.5H12.2V13.3L12.7 13.4L13.2 14L14 13.8L15 14L16 14.3L16.6 14.4L17.5 15.4L19.2 16.4L18.1 18.5L17 19L16.5 20.2L14.8 21.3L14.4 22C18.8 21 22 17.1 22 12.4C21.8 10.1 21.2 8.2 20.1 6.6Z" fill="#6B7C93"/>
<path d="M13 17.2L12.2 15.9L12.9 14.5L12.2 14.3L11.4 13.5L9.8 13.1L9.3 12V12.7H9.1L7.7 10.8V9.19999L6.7 7.59999L5.1 7.89999H3.9L3.3 7.49999L4.1 6.89999L3.3 7.09999C2.5 8.59999 2 10.3 2 12.1C2 17.6 6.5 22 11.9 22C12.3 22 12.8 22 13.1 21.9L13 20.6L13.5 18.8C13.5 18.7 13 17.2 13 17.2Z" fill="#6B7C93"/>
<path d="M5.6 5.3L7.4 5L8.3 4.5L9.3 4.8L10.7 4.7L11.2 3.9L11.9 4.1L13.6 4L14.1 3.4L14.8 2.9L15.8 3.1L16.2 3C15 2.4 13.5 2 12 2C9 2 6.2 3.4 4.4 5.6L5.6 5.3ZM12.3 3.1L13.3 2.5L14 3L13 3.8L12.1 3.9L11.6 3.6L12.3 3.1ZM9.3 3.2L9.7 3.4L10.3 3.2L10.6 3.8L9.3 4.2L8.7 3.8C8.7 3.8 9.3 3.3 9.3 3.2Z" fill="#6B7C93"/>
</svg>
