<svg width="24" height="24" viewBox="0 0 24 24" fill="none" xmlns="http://www.w3.org/2000/svg">
<path d="M7.89764 19.4922C9.02564 20.6258 12.0282 23.7026 12.0268 23.7057C12.0159 23.7258 15.0097 20.7042 16.2021 19.5063L12.0427 15.3254L7.89764 19.4922Z" fill="#3A1888"/>
<path d="M12.0427 15.3254L16.202 19.5063C16.2082 19.4994 16.2158 19.4915 16.2225 19.4852L20.3778 15.308L16.2189 11.1273L12.0427 15.3254Z" fill="#03A1C4"/>
<path d="M20.378 15.308L20.3886 15.2972C22.6872 12.9869 22.6891 9.24241 20.3955 6.9292L16.219 11.1273L20.378 15.308Z" fill="#05D0DF"/>
<path d="M7.86622 11.1273L3.72183 15.2932C3.72302 15.2946 3.72372 15.296 3.72517 15.2972L7.89074 19.4852C7.89311 19.4874 7.89548 19.4896 7.89764 19.4922L12.0427 15.3254L7.86622 11.1273Z" fill="#761FE8"/>
<path d="M12.0427 6.92897L16.2189 11.1273L20.3954 6.92923C20.3921 6.92685 20.3909 6.92446 20.3885 6.92208L16.2225 2.73456C16.2215 2.73337 16.2201 2.73218 16.2189 2.73099L12.0427 6.92897Z" fill="#FFAA01"/>
<path d="M3.70428 6.94354C1.42614 9.25675 1.43185 12.9874 3.72185 15.2932L7.86625 11.1273L3.70428 6.94354Z" fill="#F1175D"/>
<path d="M12.0427 6.92893L7.88047 2.74504L3.72514 6.92204C3.71798 6.9292 3.71156 6.93688 3.70422 6.94351L7.86619 11.1272L12.0427 6.92893Z" fill="#FB3A1B"/>
<path d="M16.2191 2.73092C13.9177 0.421814 10.1906 0.42305 7.89082 2.73449L7.88058 2.74501L12.0428 6.9289L16.2191 2.73092Z" fill="#FBC935"/>
</svg>
