<svg width="240" height="62" viewBox="0 0 240 62" fill="none" xmlns="http://www.w3.org/2000/svg">
<path d="M16.1082 50.2452C19.1891 53.3253 27.39 61.6854 27.3861 61.6939C27.3563 61.7484 35.5332 53.5383 38.79 50.2835L27.4296 38.9237L16.1082 50.2452Z" fill="#3A1888"/>
<path d="M27.4292 38.9237L38.7896 50.2835C38.8065 50.2647 38.8273 50.2432 38.8455 50.2263L50.1949 38.8763L38.8357 27.5168L27.4292 38.9237Z" fill="#03A1C4"/>
<path d="M50.1953 38.8763L50.2245 38.8471C56.5025 32.5696 56.5077 22.3955 50.2433 16.1103L38.8361 27.5169L50.1953 38.8763Z" fill="#05D0DF"/>
<path d="M16.0224 27.5169L4.7029 38.836C4.70614 38.8399 4.70806 38.8437 4.71202 38.8471L16.0893 50.2263C16.0958 50.2322 16.1023 50.2381 16.1082 50.2452L27.4296 38.9236L16.0224 27.5169Z" fill="#761FE8"/>
<path d="M27.4292 16.1096L38.8357 27.5169L50.2429 16.1103C50.2338 16.1038 50.2305 16.0974 50.2241 16.0909L38.8455 4.71295C38.8429 4.70971 38.8391 4.70647 38.8357 4.70323L27.4292 16.1096Z" fill="#FFAA01"/>
<path d="M4.65486 16.1492C-1.56738 22.4345 -1.55178 32.571 4.70286 38.8361L16.0224 27.5169L4.65486 16.1492Z" fill="#F1175D"/>
<path d="M27.4295 16.1095L16.0613 4.74144L4.71195 16.0908C4.69239 16.1102 4.67487 16.1311 4.65483 16.1491L16.0223 27.5167L27.4295 16.1095Z" fill="#FB3A1B"/>
<path d="M38.8362 4.70309C32.5504 -1.57099 22.3707 -1.56764 16.0894 4.71281L16.0615 4.74137L27.4297 16.1095L38.8362 4.70309Z" fill="#FBC935"/>
<path d="M85.888 41.7214V30.0964C85.888 27.2343 84.3905 24.6373 81.4388 24.6373C78.5319 24.6373 76.8167 27.2344 76.8167 30.0964V41.7214H71.4454V19.9691H76.4206L76.8167 22.6116C77.9618 20.4093 80.4717 19.6177 82.5389 19.6177C85.1392 19.6177 87.7357 20.6751 88.9695 23.6682C90.9068 20.586 93.4174 19.7056 96.234 19.7056C102.4 19.7056 105.437 23.4917 105.437 30.0087V41.7213H100.065V30.0087C100.065 27.1479 98.8765 24.7242 95.9722 24.7242C93.0642 24.7242 91.2588 27.2343 91.2588 30.0964V41.7214H85.888Z" fill="white"/>
<path d="M128.114 20.0146H133.266V41.7215H128.201L127.936 38.5523C126.704 41.1046 123.314 42.3365 120.892 42.382C114.465 42.4261 109.708 38.4633 109.708 30.8455C109.708 23.3605 114.686 19.442 121.026 19.486C123.931 19.486 126.704 20.8506 127.936 23.0085L128.114 20.0146ZM115.08 30.8455C115.08 34.983 117.942 37.4502 121.509 37.4502C129.963 37.4502 129.963 24.2846 121.509 24.2846C117.942 24.2846 115.08 26.7071 115.08 30.8455Z" fill="white"/>
<path d="M137.801 50.7932V20.0146H142.822L143.173 23.0085C144.847 20.5861 147.754 19.5296 150.219 19.5296C156.91 19.5296 161.359 24.5061 161.359 30.8896C161.359 37.2313 157.351 42.2506 150.395 42.2506C148.107 42.2506 144.715 41.5441 143.173 39.1672V50.7933H137.801V50.7932ZM155.987 30.8896C155.987 27.4993 153.698 24.7243 149.823 24.7243C145.947 24.7243 143.657 27.4993 143.657 30.8896C143.657 34.2789 146.168 37.0552 149.823 37.0552C153.479 37.0552 155.987 34.2789 155.987 30.8896Z" fill="white"/>
<path d="M170.958 13.4094V19.9692H178.355V21.7747H170.958V35.0291C170.958 37.9781 171.576 40.0478 174.965 40.0478C176.022 40.0478 177.21 39.6953 178.311 39.1671L179.06 40.9271C177.694 41.5896 176.328 42.0293 174.965 42.0293C170.342 42.0293 168.845 39.299 168.845 35.0291V21.7747H164.221V19.9692H168.845V13.6294L170.958 13.4094Z" fill="white"/>
<path d="M186.194 12.8801C186.194 15.1699 182.715 15.1699 182.715 12.8801C182.715 10.5914 186.194 10.5914 186.194 12.8801ZM183.333 19.8809V41.7214H185.488V19.8809H183.333Z" fill="white"/>
<path d="M193.811 10.9006V41.7214H191.653V10.9006H193.811V10.9006Z" fill="white"/>
<path d="M228.023 19.9692L228.111 23.8456C229.475 20.8933 232.559 19.7497 235.332 19.7497C236.963 19.7056 238.545 20.1465 240 21.0272L239.03 22.7877C237.887 22.0832 236.608 21.7748 235.333 21.7748C231.28 21.8203 228.155 25.0777 228.155 29.0412V41.7216H225.997V19.9692H228.023Z" fill="white"/>
<path d="M209.645 40.4126C205.811 40.4126 202.528 38.011 201.153 34.6009L201.141 34.6014L201.152 34.5985C201.151 34.5966 201.15 34.5948 201.149 34.5929L218.759 29.9187C218.76 29.9255 218.761 29.9321 218.762 29.9387L220.635 29.4427C219.879 23.9325 215.247 19.6923 209.645 19.6923C203.514 19.6923 198.545 24.7695 198.545 31.0323C198.545 37.2952 203.514 42.3725 209.645 42.3725C214.23 42.3725 218.166 39.5315 219.858 35.4787L218.092 34.7109C216.692 38.0627 213.437 40.4126 209.645 40.4126ZM200.463 31.0326C200.463 25.8518 204.574 21.6523 209.645 21.6523C213.609 21.6523 216.987 24.2197 218.272 27.8156L200.578 32.5121C200.503 32.03 200.463 31.5362 200.463 31.0326Z" fill="white"/>
</svg>
