<?xml version="1.0" encoding="utf-8"?>
<!-- Generator: Adobe Illustrator 23.0.2, SVG Export Plug-In . SVG Version: 6.00 Build 0)  -->
<svg version="1.1" id="Layer_1" xmlns="http://www.w3.org/2000/svg" xmlns:xlink="http://www.w3.org/1999/xlink" x="0px" y="0px"
	 viewBox="0 0 2380.9 2554.8" style="enable-background:new 0 0 2380.9 2554.8;" xml:space="preserve">
<style type="text/css">
	.st0{fill:#3A1888;}
	.st1{fill:#03A1C4;}
	.st2{fill:#05D0DF;}
	.st3{fill:#761FE8;}
	.st4{fill:#FFAA01;}
	.st5{fill:#F1175D;}
	.st6{fill:#FB3A1B;}
	.st7{fill:#FBC935;}
</style>
<g>
	<path class="st0" d="M880.3,1809.1c84.1,84.1,308,312.4,307.9,312.6c-0.8,1.5,222.4-222.7,311.4-311.6l-310.2-310.2L880.3,1809.1z"
		/>
	<path class="st1" d="M1189.4,1499.9l310.2,310.2c0.5-0.5,1-1.1,1.5-1.6l309.9-309.9l-310.1-310.2L1189.4,1499.9z"/>
	<path class="st2" d="M1811,1498.6l0.8-0.8c171.4-171.4,171.6-449.2,0.5-620.8l-311.5,311.4L1811,1498.6z"/>
	<path class="st3" d="M877.9,1188.5l-309.1,309.1c0.1,0.1,0.1,0.2,0.2,0.3l310.6,310.7c0.2,0.2,0.4,0.3,0.5,0.5l309.1-309.1
		L877.9,1188.5z"/>
	<path class="st4" d="M1189.4,877l311.4,311.5L1812.3,877c-0.2-0.2-0.3-0.4-0.5-0.5l-310.7-310.7c-0.1-0.1-0.2-0.2-0.3-0.3
		L1189.4,877z"/>
	<path class="st5" d="M567.6,878.1c-169.9,171.6-169.5,448.4,1.3,619.4l309.1-309.1L567.6,878.1z"/>
	<path class="st6" d="M1189.4,877L879,566.6L569.1,876.5c-0.5,0.5-1,1.1-1.6,1.6l310.4,310.4L1189.4,877z"/>
	<path class="st7" d="M1500.8,565.6c-171.6-171.3-449.6-171.2-621.1,0.3l-0.8,0.8L1189.4,877L1500.8,565.6z"/>
</g>
</svg>
