<?xml version="1.0" encoding="utf-8"?>
<!-- Generator: Adobe Illustrator 15.0.0, SVG Export Plug-In . SVG Version: 6.00 Build 0)  -->
<!DOCTYPE svg PUBLIC "-//W3C//DTD SVG 1.1//EN" "http://www.w3.org/Graphics/SVG/1.1/DTD/svg11.dtd">
<svg version="1.1" id="Layer_1" xmlns="http://www.w3.org/2000/svg" xmlns:xlink="http://www.w3.org/1999/xlink" x="0px" y="0px"
	 width="2034.203px" height="552.055px" viewBox="0 0 2034.203 552.055" enable-background="new 0 0 2034.203 552.055"
	 xml:space="preserve">
<g>
	<path fill="#3A1888" d="M3.604-242.717"/>
</g>
<g>
	<g>
		<path fill="#3A1888" d="M152.645,436.647c25.674,25.668,94.015,95.335,93.983,95.406c-0.249,0.454,67.892-67.963,95.032-95.087
			l-94.67-94.665L152.645,436.647z"/>
		<path fill="#03A1C4" d="M246.99,342.301l94.67,94.665c0.141-0.157,0.314-0.336,0.466-0.477l94.578-94.583l-94.66-94.662
			L246.99,342.301z"/>
		<path fill="#05D0DF" d="M436.704,341.907l0.243-0.244c52.317-52.312,52.36-137.096,0.157-189.473l-95.06,95.055L436.704,341.907z"
			/>
		<path fill="#761FE8" d="M151.931,247.245l-94.329,94.326c0.027,0.032,0.043,0.064,0.076,0.092l94.811,94.827
			c0.054,0.049,0.108,0.098,0.157,0.157l94.345-94.346L151.931,247.245z"/>
		<path fill="#FFAA01" d="M246.99,152.184l95.054,95.061l95.06-95.055c-0.076-0.054-0.103-0.108-0.157-0.162l-94.821-94.816
			c-0.022-0.027-0.054-0.054-0.082-0.081L246.99,152.184z"/>
		<path fill="#F1175D" d="M57.201,152.514c-51.852,52.377-51.722,136.848,0.4,189.057l94.329-94.326L57.201,152.514z"/>
		<path fill="#FB3A1B" d="M246.99,152.184L152.255,57.45l-94.578,94.578c-0.163,0.162-0.309,0.336-0.476,0.486l94.729,94.73
			L246.99,152.184z"/>
		<path fill="#FBC935" d="M342.044,57.13C289.663,4.846,204.832,4.874,152.488,57.211l-0.233,0.238l94.735,94.734L342.044,57.13z"/>
	</g>
	<g>
		<path fill="#333359" d="M734.146,365.616v-96.875c0-23.851-12.479-45.492-37.077-45.492c-24.224,0-38.517,21.642-38.517,45.492
			v96.875h-44.761V184.347h41.46l3.301,22.021c9.542-18.353,30.458-24.949,47.685-24.949c21.669,0,43.306,8.811,53.588,33.754
			c16.144-25.685,37.066-33.022,60.537-33.022c51.38,0,76.692,31.551,76.692,85.859v97.605h-44.767V268.01
			c0-23.84-9.904-44.037-34.106-44.037c-24.234,0-39.279,20.917-39.279,44.768v96.875H734.146z"/>
		<path fill="#333359" d="M1086.026,184.726h42.938v180.89h-42.208l-2.208-26.41c-10.266,21.269-38.516,31.535-58.702,31.914
			c-53.556,0.368-93.198-32.655-93.198-96.137c0-62.375,41.477-95.029,94.313-94.662c24.212,0,47.321,11.371,57.587,29.354
			L1086.026,184.726z M977.416,274.983c0,34.479,23.85,55.039,53.573,55.039c70.446,0,70.446-109.713,0-109.713
			C1001.266,220.309,977.416,240.496,977.416,274.983z"/>
		<path fill="#333359" d="M1166.756,441.214V184.726h41.839l2.923,24.949c13.951-20.187,38.175-28.991,58.719-28.991
			c55.753,0,92.835,41.471,92.835,94.667c0,52.847-33.401,94.675-91.374,94.675c-19.065,0-47.332-5.888-60.18-25.695v96.884
			H1166.756z M1318.305,275.351c0-28.253-19.082-51.378-51.37-51.378c-32.298,0-51.38,23.125-51.38,51.378
			c0,28.244,20.922,51.38,51.38,51.38C1297.404,326.731,1318.305,303.595,1318.305,275.351z"/>
		<path fill="#333359" d="M1443.064,129.682v54.665h61.642v15.046h-61.642v110.453c0,24.575,5.146,41.823,33.392,41.823
			c8.805,0,18.709-2.938,27.882-7.339l6.24,14.666c-11.382,5.521-22.763,9.185-34.122,9.185c-38.527,0-51.002-22.752-51.002-58.335
			V199.393h-38.538v-15.046h38.538v-52.831L1443.064,129.682z"/>
		<path fill="#333359" d="M1570.027,125.272c0,19.082-28.986,19.082-28.986,0C1541.041,106.2,1570.027,106.2,1570.027,125.272z
			 M1546.188,183.612v182.004h17.962V183.612H1546.188z"/>
		<path fill="#333359" d="M1633.503,108.776v256.84h-17.983v-256.84H1633.503z"/>
		<path fill="#333359" d="M1918.606,184.347l0.73,32.304c11.365-24.603,37.066-34.133,60.181-34.133
			c13.589-0.367,26.772,3.307,38.896,10.646l-8.08,14.671c-9.525-5.871-20.187-8.441-30.815-8.441
			c-33.771,0.379-59.817,27.524-59.817,60.553v105.67h-17.979V184.347H1918.606z"/>
	</g>
	<g>
		<path fill="none" d="M1694.655,305.711c0.006,0.016,0.014,0.031,0.02,0.047l146.748-38.832c-0.007-0.055-0.012-0.11-0.018-0.166
			L1694.655,305.711z"/>
		<path fill="none" d="M1765.447,197.873c-42.255,0-76.514,34.997-76.514,78.169c0,4.196,0.333,8.312,0.956,12.329l147.452-39.137
			C1826.633,219.268,1798.486,197.873,1765.447,197.873z"/>
		<g>
			<path fill="none" d="M1765.447,198.374c-42.255,0-76.514,34.996-76.514,78.169c0,4.196,0.333,8.312,0.956,12.329l147.452-39.137
				C1826.633,219.768,1798.486,198.374,1765.447,198.374z"/>
			<path fill="#333359" d="M1765.447,354.709c-31.946,0-59.308-20.014-70.764-48.431l-0.1,0.004l0.091-0.024
				c-0.006-0.016-0.014-0.031-0.02-0.047l146.75-38.951c0.006,0.056,0.011,0.111,0.018,0.166l15.616-4.133
				c-6.306-45.918-44.904-81.253-91.59-81.253c-51.089,0-92.501,42.31-92.501,94.5s41.412,94.501,92.501,94.501
				c38.213,0,71.011-23.675,85.115-57.448l-14.717-6.398C1824.179,335.126,1797.054,354.709,1765.447,354.709z M1688.934,276.542
				c0-43.173,34.259-78.169,76.514-78.169c33.039,0,61.186,21.395,71.895,51.361l-147.452,39.137
				C1689.267,284.854,1688.934,280.739,1688.934,276.542z"/>
		</g>
	</g>
</g>
</svg>
