<?xml version="1.0" encoding="UTF-8" standalone="no"?>
<svg
   xmlns:dc="http://purl.org/dc/elements/1.1/"
   xmlns:cc="http://creativecommons.org/ns#"
   xmlns:rdf="http://www.w3.org/1999/02/22-rdf-syntax-ns#"
   xmlns:svg="http://www.w3.org/2000/svg"
   xmlns="http://www.w3.org/2000/svg"
   xmlns:sodipodi="http://sodipodi.sourceforge.net/DTD/sodipodi-0.dtd"
   xmlns:inkscape="http://www.inkscape.org/namespaces/inkscape"
   version="1.1"
   id="svg5088"
   inkscape:version="1.0.2 (e86c8708, 2021-01-15)"
   sodipodi:docname="road_primary.svg"
   x="0px"
   y="0px"
   width="42.000004"
   height="16.150852"
   viewBox="0 0 42.000004 16.150853"
   enable-background="new 0 0 40 14.4"
   xml:space="preserve"><metadata
   id="metadata15261"><rdf:RDF><cc:Work
       rdf:about=""><dc:format>image/svg+xml</dc:format><dc:type
         rdf:resource="http://purl.org/dc/dcmitype/StillImage" /><dc:title></dc:title></cc:Work></rdf:RDF></metadata><defs
   id="defs15259" />
<sodipodi:namedview
   id="namedview5957"
   guidetolerance="10"
   inkscape:window-maximized="1"
   bordercolor="#666666"
   inkscape:window-height="776"
   inkscape:cx="21.000002"
   objecttolerance="10"
   inkscape:window-y="25"
   inkscape:cy="8.0754257"
   fit-margin-top="0"
   showgrid="false"
   inkscape:current-layer="svg5088"
   inkscape:zoom="19.261903"
   inkscape:pageopacity="0"
   borderopacity="1"
   inkscape:window-x="0"
   inkscape:window-width="1440"
   pagecolor="#ffffff"
   gridtolerance="10"
   inkscape:pageshadow="2"
   fit-margin-left="0"
   fit-margin-bottom="0"
   fit-margin-right="0"
   inkscape:document-rotation="0">
	</sodipodi:namedview>
<g
   id="g15845"
   style="stroke:#d9c1a1;stroke-width:1.66667;stroke-miterlimit:4;stroke-dasharray:none;stroke-opacity:1;fill:#f2e3cf;fill-opacity:1"
   transform="matrix(1.008,0,0,1.008,0.84000166,0.79564966)"><g
     id="g15256"
     style="fill:#f2e3cf;fill-opacity:1;stroke:#d9c1a1;stroke-width:1.66667;stroke-miterlimit:4;stroke-dasharray:none;stroke-opacity:1">
	<path
   fill="#FFFFFF"
   d="m 39.625,11.304 c 0,1.504 -1.217,2.721 -2.721,2.721 H 3.096 c -1.502,0 -2.721,-1.217 -2.721,-2.721 V 3.14 c 0,-1.502 1.218,-2.721 2.721,-2.721 h 33.809 c 1.504,0 2.721,1.218 2.721,2.721 v 8.164 z"
   id="path15252"
   style="fill:#f2e3cf;fill-opacity:1;stroke:#d9c1a1;stroke-width:1.66667;stroke-miterlimit:4;stroke-dasharray:none;stroke-opacity:1" />
	<path
   fill="#333333"
   d="M 36.904,14.4 H 3.096 C 1.389,14.4 0,13.011 0,11.304 V 3.14 C 0,1.433 1.389,0.044 3.096,0.044 H 36.905 C 38.611,0.045 40,1.433 40,3.14 v 8.164 C 40,13.011 38.611,14.4 36.904,14.4 Z M 3.096,0.795 C 1.803,0.795 0.75,1.847 0.75,3.141 v 8.164 c 0,1.293 1.052,2.346 2.346,2.346 h 33.809 c 1.293,0 2.346,-1.053 2.346,-2.346 V 3.14 c 0,-1.293 -1.053,-2.346 -2.346,-2.346 H 3.096 Z"
   id="path15254"
   style="fill:#f2e3cf;fill-opacity:1;stroke:#d9c1a1;stroke-width:1.66667;stroke-miterlimit:4;stroke-dasharray:none;stroke-opacity:1" />
</g></g>
</svg>
