<?xml version="1.0" encoding="utf-8"?>
<!-- Generator: Adobe Illustrator 15.0.0, SVG Export Plug-In . SVG Version: 6.00 Build 0)  -->
<!DOCTYPE svg PUBLIC "-//W3C//DTD SVG 1.1//EN" "http://www.w3.org/Graphics/SVG/1.1/DTD/svg11.dtd">
<svg version="1.1"
	 id="svg3844" xmlns:sodipodi="http://sodipodi.sourceforge.net/DTD/sodipodi-0.dtd" xmlns:cc="http://creativecommons.org/ns#" xmlns:dc="http://purl.org/dc/elements/1.1/" inkscape:version="0.48.4 r9939" sodipodi:docname="us-interstate-2.svg" xmlns:inkscape="http://www.inkscape.org/namespaces/inkscape" xmlns:rdf="http://www.w3.org/1999/02/22-rdf-syntax-ns#" xmlns:svg="http://www.w3.org/2000/svg"
	 xmlns="http://www.w3.org/2000/svg" xmlns:xlink="http://www.w3.org/1999/xlink" x="0px" y="0px" width="21.625px"
	 height="18.125px" viewBox="-0.125 0 21.625 18.125" enable-background="new -0.125 0 21.625 18.125" xml:space="preserve">
<sodipodi:namedview  id="namedview5316" guidetolerance="10" showguides="true" inkscape:window-maximized="0" bordercolor="#666666" inkscape:window-height="905" inkscape:cx="10.240357" objecttolerance="10" inkscape:window-y="63" inkscape:cy="6.5354935" inkscape:guide-bbox="true" fit-margin-top="0" showgrid="true" inkscape:current-layer="svg3844" inkscape:zoom="22.627417" inkscape:pageopacity="0" borderopacity="1" inkscape:window-x="167" inkscape:window-width="1345" pagecolor="#ffffff" gridtolerance="10" inkscape:pageshadow="2" inkscape:snap-bbox="true" fit-margin-left="0" fit-margin-bottom="0" fit-margin-right="0">
	
		<inkscape:grid  id="grid3070" type="xygrid" originx="1px" visible="true" enabled="true" spacingx="0.5px" originy="1px" spacingy="0.5px" snapvisiblegridlinesonly="true" empspacing="2">
		</inkscape:grid>
</sodipodi:namedview>
<g>
	<g id="g2099_1_">
		<path id="path2101_1_" fill="#FFFFFF" d="M10.833,0.688c1.183,0.292,2.438,0.448,3.737,0.448c1.3,0,2.555-0.156,3.737-0.448
			c1.724,1.764,2.754,3.992,2.754,6.418c0,5.009-4.394,9.184-10.229,10.145C4.998,16.289,0.606,12.114,0.606,7.105
			c0-2.426,1.028-4.654,2.755-6.418c1.18,0.292,2.436,0.448,3.734,0.448C8.396,1.136,9.65,0.98,10.833,0.688z"/>
		<path id="path2103_1_" fill="#FFFFFF" d="M10.833,0.688c1.183,0.292,2.438,0.448,3.737,0.448c1.3,0,2.555-0.156,3.737-0.448
			c1.724,1.764,2.754,3.992,2.754,6.418c0,5.009-4.394,9.184-10.229,10.145C4.998,16.289,0.606,12.114,0.606,7.105
			c0-2.426,1.028-4.654,2.755-6.418c1.18,0.292,2.436,0.448,3.734,0.448C8.396,1.136,9.65,0.98,10.833,0.688z"/>
	</g>
	<g id="g2105_1_">
		<path id="path2107_1_" fill="#1565C0" d="M1.92,5.332c0,0,4.313-0.835,9.033-0.835c4.721,0,9.001,0.835,9.001,0.835
			c0.254,0.77,0.25,1.014,0.25,1.848c0,4.509-3.984,8.278-9.292,9.174c-5.311-0.896-9.295-4.665-9.295-9.174
			C1.617,6.346,1.664,6.101,1.92,5.332z"/>
	</g>
	<g id="g2109_1_">
		<path id="path2111_1_" fill="#E65100" d="M14.485,1.937c1.173,0,2.31-0.127,3.391-0.365c0.784,0.837,1.396,1.785,1.796,2.807
			c0,0-4.578-0.756-8.754-0.756S2.15,4.378,2.15,4.378C2.55,3.356,3.162,2.409,3.946,1.571c1.079,0.238,2.216,0.365,3.39,0.365
			c1.241,0,2.441-0.143,3.576-0.407C12.046,1.794,13.247,1.937,14.485,1.937z"/>
	</g>
</g>
</svg>
