<?xml version="1.0" encoding="utf-8"?>
<!-- Generator: Adobe Illustrator 15.0.0, SVG Export Plug-In . SVG Version: 6.00 Build 0)  -->
<!DOCTYPE svg PUBLIC "-//W3C//DTD SVG 1.1//EN" "http://www.w3.org/Graphics/SVG/1.1/DTD/svg11.dtd">
<svg version="1.1"
	 id="svg3844" xmlns:sodipodi="http://sodipodi.sourceforge.net/DTD/sodipodi-0.dtd" xmlns:cc="http://creativecommons.org/ns#" xmlns:dc="http://purl.org/dc/elements/1.1/" inkscape:version="0.48.4 r9939" sodipodi:docname="us-interstate-2.svg" xmlns:inkscape="http://www.inkscape.org/namespaces/inkscape" xmlns:rdf="http://www.w3.org/1999/02/22-rdf-syntax-ns#" xmlns:svg="http://www.w3.org/2000/svg"
	 xmlns="http://www.w3.org/2000/svg" xmlns:xlink="http://www.w3.org/1999/xlink" x="0px" y="0px" width="18.75px"
	 height="18.125px" viewBox="22.125 0 18.75 18.125" enable-background="new 22.125 0 18.75 18.125" xml:space="preserve">
<sodipodi:namedview  id="namedview5316" guidetolerance="10" showguides="true" inkscape:window-maximized="0" bordercolor="#666666" inkscape:window-height="905" inkscape:cx="10.240357" objecttolerance="10" inkscape:window-y="63" inkscape:cy="6.5354935" inkscape:guide-bbox="true" fit-margin-top="0" showgrid="true" inkscape:current-layer="svg3844" inkscape:zoom="22.627417" inkscape:pageopacity="0" borderopacity="1" inkscape:window-x="167" inkscape:window-width="1345" pagecolor="#ffffff" gridtolerance="10" inkscape:pageshadow="2" inkscape:snap-bbox="true" fit-margin-left="0" fit-margin-bottom="0" fit-margin-right="0">
	
		<inkscape:grid  id="grid3070" type="xygrid" originx="1px" visible="true" enabled="true" spacingx="0.5px" originy="1px" spacingy="0.5px" snapvisiblegridlinesonly="true" empspacing="2">
		</inkscape:grid>
</sodipodi:namedview>
<g>
	<g id="g2099">
		<path id="path2101" fill="#FFFFFF" d="M31.458,0.88c1.045,0.295,2.155,0.452,3.304,0.452s2.258-0.157,3.303-0.452
			c1.523,1.778,2.435,4.023,2.435,6.467c0,5.047-3.884,9.253-9.041,10.221C26.3,16.6,22.419,12.394,22.419,7.347
			c0-2.444,0.909-4.689,2.435-6.467c1.043,0.295,2.153,0.452,3.302,0.452C29.305,1.332,30.413,1.175,31.458,0.88z"/>
		<path id="path2103" fill="#FFFFFF" d="M31.458,0.88c1.045,0.295,2.155,0.452,3.304,0.452s2.258-0.157,3.303-0.452
			c1.523,1.778,2.435,4.023,2.435,6.467c0,5.047-3.884,9.253-9.041,10.221C26.3,16.6,22.419,12.394,22.419,7.347
			c0-2.444,0.909-4.689,2.435-6.467c1.043,0.295,2.153,0.452,3.302,0.452C29.305,1.332,30.413,1.175,31.458,0.88z"/>
	</g>
	<g id="g2105">
		<path id="path2107" fill="#1565C0" d="M23.58,5.56c0,0,3.812-0.842,7.984-0.842S39.52,5.56,39.52,5.56
			c0.225,0.775,0.222,1.021,0.222,1.861c0,4.544-3.521,8.34-8.214,9.244c-4.693-0.904-8.215-4.7-8.215-9.244
			C23.312,6.581,23.354,6.335,23.58,5.56z"/>
	</g>
	<g id="g2109">
		<path id="path2111" fill="#E65100" d="M34.687,2.139c1.036,0,2.041-0.128,2.996-0.368c0.693,0.844,1.234,1.799,1.588,2.828
			c0,0-4.047-0.762-7.737-0.762s-7.75,0.762-7.75,0.762c0.354-1.029,0.895-1.984,1.588-2.828c0.954,0.24,1.959,0.368,2.996,0.368
			c1.097,0,2.157-0.144,3.16-0.411C32.53,1.995,33.592,2.139,34.687,2.139z"/>
	</g>
</g>
</svg>
